<?xml version="1.0" encoding="utf-8"?>
<!-- Generator: Adobe Illustrator 19.1.0, SVG Export Plug-In . SVG Version: 6.00 Build 0)  -->
<!DOCTYPE svg PUBLIC "-//W3C//DTD SVG 1.1//EN" "http://www.w3.org/Graphics/SVG/1.1/DTD/svg11.dtd">
<svg version="1.1" id="Layer_1" xmlns="http://www.w3.org/2000/svg" xmlns:xlink="http://www.w3.org/1999/xlink" x="0px" y="0px"
	 viewBox="0 0 948 281" style="enable-background:new 0 0 948 281;" xml:space="preserve">
<style type="text/css">
	.st0{fill-rule:evenodd;clip-rule:evenodd;fill:#a2d722;}
	.st1{fill-rule:evenodd;clip-rule:evenodd;fill:#4BB5E1;}
	.st2{fill-rule:evenodd;clip-rule:evenodd;fill:#69757C;}
	.st3{fill-rule:evenodd;clip-rule:evenodd;fill:#F17923;}
	.st4{fill:#69757C;}
</style>
<g>
	<path class="st0" d="M44.9,179.2c0,1.3,0,1.3,0,1.3c0,32.3,26,58.1,58.4,58.1c69.4,0,69.4,0,69.4,0c-0.9,0-1.3-0.4-1.7-0.4
		c-17.9-6.8-34.9-17.4-50.7-31.8c-21.7-19.5-31.1-39-34.9-52.2c-4.3-13.2-3.8-22.5-3.8-23.8c0-16.1,5.1-30.6,14.1-42.4
		c-4.7,3.8-9.4,8.1-13.6,13.2C48.7,137.2,45.3,169.9,44.9,179.2L44.9,179.2z"/>
	<path class="st1" d="M183,58.5c-35.8-32.6-69-36-78-36.4c-1.7,0-1.7,0-1.7,0c-32.4,0-58.4,25.9-58.4,58.1c0,69.1,0,69.1,0,69.1
		c0-0.8,0.4-1.3,0.4-1.7c6.8-17.8,17.5-34.7,32-50.9c32.8-35.6,65.2-38.1,74.2-38.1c1.3,0,2.1,0,2.1,0c16.2,0,30.7,5.1,42.6,14
		C192.3,67.8,188.1,63.2,183,58.5L183,58.5z"/>
	<path class="st2" d="M155.7,202.2c-1.3,0-1.7,0-2.1,0c-15.9,0-30.8-5.1-42.8-14c3.9,4.7,8.1,9.3,13.3,14
		c36.4,32.6,69.4,36,78.8,36.4c1.3,0,1.3,0,1.3,0c32.6,0,58.7-25.9,58.7-58.1c0-69.1,0-69.1,0-69.1c0,0.8-0.4,1.3-0.4,1.7
		c-6.4,17.8-17.6,34.7-32.1,50.9C197.7,199.7,164.7,202.2,155.7,202.2L155.7,202.2z"/>
	<path class="st3" d="M262.8,81.5c0-1.3,0-1.3,0-1.3c0-32.3-26.1-58.1-58.7-58.1c-69.9,0-69.9,0-69.9,0c0.9,0,1.3,0.4,1.7,0.4
		c18,6.8,35.1,17.4,51.4,31.8c21.4,19.5,30.9,39,35.1,52.2c3.9,13.2,3.4,22.5,3.4,23.8c0,16.1-5.1,30.6-14.1,42.4
		c4.7-3.8,9.4-8.1,14.1-13.2C258.9,123.5,262.8,90.8,262.8,81.5L262.8,81.5z"/>
</g>
<path class="st4" d="M411.4,41.6c-2.9-5.4-7.1-9.7-12.7-12.9s-12.4-4.9-20.6-4.9h-55.8V128H354V95.2h24.1c8.2-0.1,15-1.7,20.6-4.9
	s9.8-7.5,12.7-12.8c2.9-5.4,4.3-11.3,4.3-17.8C415.7,53,414.3,47,411.4,41.6z M380.9,65.7c-1.8,1.3-4.1,2-6.8,2H354V51.2h20.1
	c2.7,0,5,0.7,6.8,2c1.8,1.4,2.7,3.4,2.8,6.3C383.6,62.3,382.7,64.3,380.9,65.7z"/>
<path class="st4" d="M728.5,41.6c-2.9-5.4-7.1-9.7-12.7-12.9c-5.6-3.2-12.4-4.9-20.6-4.9h-55.8V128h31.6V95.2h24.1
	c8.2-0.1,15-1.7,20.6-4.9c5.6-3.2,9.8-7.5,12.7-12.8c2.9-5.4,4.3-11.3,4.3-17.8C732.8,53,731.3,47,728.5,41.6z M697.9,65.7
	c-1.8,1.3-4.1,2-6.8,2h-20.1V51.2h20.1c2.7,0,5,0.7,6.8,2c1.8,1.4,2.7,3.4,2.8,6.3C700.6,62.3,699.7,64.3,697.9,65.7z"/>
<polygon class="st4" points="505.7,100.5 458.1,100.5 458.1,89.1 504.6,89.1 504.6,61.6 458.1,61.6 458.1,51.2 505.7,51.2 
	505.7,23.8 426.4,23.8 426.4,128 505.7,128 "/>
<path class="st4" d="M353.5,154.9h-30.9v82.3h7V203h23.9c7.9-0.2,14-2.6,18.3-7.2c4.3-4.6,6.5-10.2,6.5-16.9
	c0-6.7-2.2-12.3-6.5-16.9C367.6,157.5,361.4,155.1,353.5,154.9z M366,191.6c-3.2,3.2-7.6,4.9-13.2,5h-23.1v-35.3h23.1
	c5.6,0.1,10,1.7,13.2,4.9c3.2,3.2,4.9,7.4,5,12.7C370.9,184.2,369.2,188.4,366,191.6z"/>
<path class="st4" d="M620.5,47.7c-5-8.1-11.8-14.3-20.4-18.8c-8.6-4.5-18.3-6.8-29.2-6.9c-10.9,0.1-20.6,2.4-29.2,6.9
	c-8.6,4.5-15.4,10.8-20.4,18.8c-5,8.1-7.5,17.5-7.7,28.2c0.1,10.8,2.7,20.2,7.7,28.2c5,8.1,11.8,14.3,20.4,18.8
	c8.6,4.5,18.3,6.8,29.2,6.9c10.9-0.1,20.6-2.4,29.2-6.9c8.6-4.5,15.4-10.8,20.4-18.8c5-8.1,7.5-17.5,7.7-28.2
	C628.1,65.2,625.5,55.8,620.5,47.7z M589.2,94.5c-4.5,4.9-10.5,7.4-18.2,7.6c-7.7-0.2-13.8-2.7-18.2-7.6c-4.5-4.9-6.7-11.1-6.8-18.5
	c0.1-7.4,2.4-13.6,6.8-18.5c4.5-4.9,10.5-7.4,18.2-7.6c7.7,0.2,13.8,2.7,18.2,7.6c4.5,4.9,6.7,11.1,6.8,18.5
	C596,83.4,593.7,89.6,589.2,94.5z"/>
<polygon class="st4" points="775.1,23.8 743.5,23.8 743.5,128 814.8,128 814.8,100.5 775.1,100.5 "/>
<path class="st4" d="M805.2,196.2c4.4-4,6.6-9.8,6.8-17.3c-0.2-7.6-2.6-13.5-7.2-17.7c-4.7-4.2-10.6-6.3-17.9-6.4h-30.8v82.3h7
	v-34.1h18.2l23.1,34.1h8.5l-23.9-34.5C795.4,202.4,800.8,200.2,805.2,196.2z M763.1,196.7v-35.4h23.1c5.6,0.1,10,1.7,13.3,4.9
	c3.3,3.2,5,7.4,5,12.7c-0.1,5.3-1.8,9.5-5,12.8c-3.3,3.2-7.7,4.9-13.3,5H763.1z"/>
<polygon class="st4" points="868.6,223.3 840.6,154.9 830,154.9 830,237.2 837.1,237.2 837.1,163.8 867.3,237.2 870,237.2 
	900.1,163.8 900.1,237.2 907.2,237.2 907.2,154.9 896.6,154.9 "/>
<polygon class="st4" points="907.2,51.2 907.2,23.8 827.9,23.8 827.9,128 907.2,128 907.2,100.5 859.6,100.5 859.6,89.1 906.1,89.1 
	906.1,61.6 859.6,61.6 859.6,51.2 "/>
<polygon class="st4" points="518.9,161.3 545.9,161.3 545.9,237.2 553,237.2 553,161.3 580,161.3 580,154.9 518.9,154.9 "/>
<path class="st4" d="M719.4,159.2c-6-3.7-13-5.6-21.1-5.7c-8.1,0.1-15.2,2-21.2,5.7c-6,3.7-10.6,8.8-13.9,15.1
	c-3.3,6.4-5,13.6-5,21.7c0,8.1,1.7,15.3,5,21.7c3.3,6.4,7.9,11.4,13.9,15.1c6,3.7,13,5.6,21.2,5.7c8.1-0.1,15.1-2,21.1-5.7
	c6-3.7,10.6-8.8,13.9-15.1c3.3-6.4,5-13.6,5-21.7c0-8.1-1.7-15.3-5-21.7C730,168,725.3,162.9,719.4,159.2z M726.8,214.7
	c-2.7,5.4-6.5,9.7-11.3,12.8c-4.9,3.1-10.6,4.7-17.3,4.8c-6.7-0.1-12.4-1.7-17.3-4.8c-4.9-3.1-8.6-7.4-11.3-12.8
	c-2.7-5.4-4-11.6-4-18.6c0.1-10.6,3.1-19.3,8.9-25.9c5.8-6.6,13.7-10.1,23.8-10.3c10,0.2,17.9,3.6,23.8,10.3
	c5.8,6.6,8.8,15.3,8.9,25.9C730.9,203.1,729.5,209.3,726.8,214.7z"/>
<polygon class="st4" points="398.5,154.9 391.3,154.9 391.3,237.2 438.5,237.2 438.5,230.8 398.5,230.8 "/>
<path class="st4" d="M487.3,154.9h-8.8l-33.8,82.3h8.2l8.2-20.2h43.7l8.2,20.2h8.2L487.3,154.9z M463.5,210.5l19.5-48.1l19.4,48.1
	H463.5z"/>
<polygon class="st4" points="594.2,237.2 601.3,237.2 601.3,198.2 645.7,198.2 645.7,191.8 601.3,191.8 601.3,161.3 646.5,161.3 
	646.5,154.9 594.2,154.9 "/>
</svg>
