<?xml version="1.0" encoding="UTF-8"?>
<svg width="400px" height="95px" viewBox="0 0 400 95" version="1.1" xmlns="http://www.w3.org/2000/svg" xmlns:xlink="http://www.w3.org/1999/xlink">
    <!-- Generator: Sketch 50.2 (55047) - http://www.bohemiancoding.com/sketch -->
    <title>Unit4Logo</title>
    <desc>Created with Sketch.</desc>
    <defs></defs>
    <g id="Unit4Logo" stroke="none" stroke-width="1" fill="none" fill-rule="evenodd">
        <g id="Unit4_Logo_RGB">
            <g id="Layer_1">
                <g id="Group" fill="#7C878E">
                    <path d="M62.3078591,1.24363636 L62.3078591,56.1266477 C62.3078591,69.7958523 54.1105691,77.9572159 40.3815718,77.9572159 C26.5626016,77.9572159 18.3143631,69.7958523 18.3143631,56.1266477 L18.3143631,1.24363636 L0,1.24363636 L0,54.0474432 C0,78.434375 16.2287263,94.8197159 40.3815718,94.8197159 C64.5322493,94.8197159 80.7588076,78.434375 80.7588076,54.0474432 L80.7588076,1.24363636 L62.3078591,1.24363636 L62.3078591,1.24363636 Z" id="Shape"></path>
                    <path d="M144.23523,0 C120.081301,0 103.854743,16.3821023 103.854743,40.7647159 L103.854743,94.0035795 L122.311111,94.0035795 L122.311111,38.6919886 C122.311111,25.0184659 130.507317,16.8560227 144.236314,16.8560227 C158.053117,16.8560227 166.302439,25.0195455 166.302439,38.6919886 L166.302439,94.0035795 L184.61897,94.0035795 L184.61897,40.7647159 C184.617886,16.3821023 168.38916,0 144.23523,0 L144.23523,0 Z" id="Shape"></path>
                    <rect id="Rectangle-path" x="212.04878" y="1.24363636" width="18.3154472" height="92.7599432"></rect>
                    <polygon id="Shape" points="254.829268 1.24363636 254.829268 18.5142045 282.262331 18.5142045 282.262331 94.0035795 300.574526 94.0035795 300.574526 18.5142045 328.008672 18.5142045 328.008672 1.24363636"></polygon>
                </g>
                <path d="M399.564228,1.24363636 L379.747425,1.24363636 L335.223848,63.3466477 C333.928455,65.1948295 333.434146,67.4348864 333.82981,69.6555114 C334.226558,71.8761364 335.467751,73.8085227 337.323577,75.0964205 C338.750136,76.0906818 340.4271,76.6164205 342.17561,76.6164205 L342.177778,76.6164205 L376.165854,76.6002273 L376.165854,94.0035795 L393.117615,94.0035795 L393.170732,62.0878977 L356.777236,62.0878977 L399.564228,1.24363636 L399.564228,1.24363636 Z" id="Shape" fill="#A2D722"></path>
            </g>
        </g>
    </g>
</svg>